<svg width="18" height="23" viewBox="0 0 18 23" fill="none" xmlns="http://www.w3.org/2000/svg">
<path d="M9 4.90164C8.25 4.90164 7.5 4.52459 7.5 3.39344C7.5 2.2623 8.25 1.13115 9 0C9.75 1.13115 10.5 2.2623 10.5 3.39344C10.5 4.52459 9.75 4.90164 9 4.90164Z" fill="#263A29"/>
<path fill-rule="evenodd" clip-rule="evenodd" d="M18 12.8197C18 10.9455 16.489 9.42623 14.625 9.42623H10.875V7.54098C10.875 7.12451 10.5392 6.78689 10.125 6.78689H7.875C7.46079 6.78689 7.125 7.12451 7.125 7.54098V9.42623H3.375C1.51104 9.42623 0 10.9455 0 12.8197C0 14.1777 0.793398 15.3494 1.93956 15.8918L2.80838 21.7155C2.91852 22.4538 3.54929 23 4.29178 23H13.7082C14.4507 23 15.0815 22.4538 15.1916 21.7155L16.0604 15.8918C17.2066 15.3494 18 14.1777 18 12.8197ZM4.98948 14.0567C4.663 14.4993 4.06217 14.7049 3.375 14.7049C2.33947 14.7049 1.5 13.8609 1.5 12.8197C1.5 11.7785 2.33947 10.9344 3.375 10.9344H14.625C15.6605 10.9344 16.5 11.7785 16.5 12.8197C16.5 13.8609 15.6605 14.7049 14.625 14.7049C13.9378 14.7049 13.337 14.4993 13.0105 14.0567C12.9431 13.9911 12.8512 13.9508 12.75 13.9508C12.6488 13.9508 12.5569 13.9911 12.4895 14.0567C12.163 14.4993 11.5622 14.7049 10.875 14.7049C10.1878 14.7049 9.587 14.4993 9.26052 14.0567C9.19306 13.9911 9.10121 13.9508 9 13.9508C8.89879 13.9508 8.80694 13.9911 8.73948 14.0567C8.413 14.4993 7.81217 14.7049 7.125 14.7049C6.43783 14.7049 5.837 14.4993 5.51052 14.0567C5.44306 13.9911 5.35121 13.9508 5.25 13.9508C5.14879 13.9508 5.05694 13.9911 4.98948 14.0567Z" fill="#263A29"/>
</svg>
