<svg width="19" height="23" viewBox="0 0 19 23" fill="none" xmlns="http://www.w3.org/2000/svg">
<path fill-rule="evenodd" clip-rule="evenodd" d="M12.16 18.9194C15.96 17.0645 19 14.8387 19 9.64516C19 4.45161 14.9566 0 9.5 0C4.04343 0 0 4.45161 0 9.64516C0 14.8387 3.04 17.0645 6.84 18.9194C7.57797 19.7294 8.05043 20.7345 8.43116 21.5445C8.82142 22.3748 9.11531 23 9.5 23C9.88469 23 10.1786 22.3748 10.5688 21.5445C10.9496 20.7345 11.422 19.7294 12.16 18.9194ZM9.5 12.6129C11.1789 12.6129 12.54 11.2842 12.54 9.64516C12.54 8.00612 11.1789 6.67742 9.5 6.67742C7.82105 6.67742 6.46 8.00612 6.46 9.64516C6.46 11.2842 7.82105 12.6129 9.5 12.6129Z" fill="#263A29"/>
</svg>
