<svg width="27" height="23" viewBox="0 0 27 23" fill="none" xmlns="http://www.w3.org/2000/svg">
<path d="M0.935002 5.88119L13.0761 0.198421C13.3447 0.0726863 13.6553 0.0726867 13.9239 0.198422L26.065 5.88119C26.8331 6.24071 26.8331 7.33307 26.065 7.69258L13.9239 13.3753C13.6553 13.5011 13.3447 13.5011 13.0761 13.3753L0.935001 7.69258C0.166897 7.33306 0.166898 6.24071 0.935002 5.88119Z" fill="#263A29"/>
<path d="M5.66216 16.2131V11.6885L13.0665 15.2505C13.3405 15.3823 13.6595 15.3823 13.9335 15.2505L21.3378 11.6885V16.2131C20.9459 17.3443 18.9865 19.6066 13.5 19.6066C8.01351 19.6066 6.05405 17.3443 5.66216 16.2131Z" fill="#263A29"/>
<path d="M24.0811 18.0984V10.3689L25.6486 9.61475V18.0984C26.3593 19.01 26.4461 20.2616 25.8681 21.2626L24.8649 23L23.8616 21.2626C23.2836 20.2616 23.3704 19.01 24.0811 18.0984Z" fill="#263A29"/>
</svg>
