<svg width="31" height="30" viewBox="0 0 31 30" fill="none" xmlns="http://www.w3.org/2000/svg">
<path id="Vector" d="M28.6935 0H3.02077C1.82578 0 0.857147 0.968628 0.857147 2.16362V27.8364C0.857147 29.0314 1.82578 30 3.02077 30H28.6935C29.8885 30 30.8571 29.0314 30.8571 27.8364V2.16362C30.8571 0.968628 29.8885 0 28.6935 0V0ZM11.4983 22.6758H7.84514V11.6851H11.4983V22.6758ZM9.67184 10.1843H9.64804C8.42215 10.1843 7.6293 9.34044 7.6293 8.28575C7.6293 7.20726 8.44641 6.38672 9.69611 6.38672C10.9458 6.38672 11.7148 7.20726 11.7386 8.28575C11.7386 9.34044 10.9458 10.1843 9.67184 10.1843ZM24.6709 22.6758H21.0182V16.796C21.0182 15.3184 20.4893 14.3106 19.1675 14.3106C18.1583 14.3106 17.5573 14.9904 17.2932 15.6466C17.1966 15.8814 17.173 16.2096 17.173 16.5381V22.6758H13.52C13.52 22.6758 13.5679 12.7162 13.52 11.6851H17.173V13.2413C17.6584 12.4924 18.5271 11.4272 20.4652 11.4272C22.8687 11.4272 24.6709 12.998 24.6709 16.3737V22.6758Z" fill="#263A29"/>
</svg>
