<svg width="33" height="28" viewBox="0 0 33 28" fill="none" xmlns="http://www.w3.org/2000/svg">
<g id="Group">
<g id="Group_2">
<path id="Vector" d="M32.8571 3.64186C31.6353 4.1868 30.3333 4.54801 28.9759 4.72339C30.3723 3.8757 31.4381 2.54361 31.9392 0.938009C30.6372 1.72724 29.1997 2.28471 27.6678 2.59581C26.4315 1.25746 24.6696 0.428558 22.7474 0.428558C19.0181 0.428558 16.0158 3.50614 16.0158 7.279C16.0158 7.82186 16.061 8.34383 16.1719 8.84076C10.5718 8.56306 5.61652 5.83416 2.28768 1.67713C1.70652 2.70229 1.36563 3.8757 1.36563 5.13889C1.36563 7.51076 2.56696 9.61328 4.35768 10.8305C3.27545 10.8097 2.21375 10.4902 1.31429 9.98702C1.31429 10.0079 1.31429 10.035 1.31429 10.0622C1.31429 13.3903 3.6492 16.1547 6.71107 16.7915C6.16277 16.9439 5.56518 17.017 4.945 17.017C4.51375 17.017 4.07839 16.992 3.66973 16.9001C4.5425 19.6123 7.01911 21.6063 9.96393 21.671C7.67214 23.4937 4.76223 24.592 1.61205 24.592C1.05964 24.592 0.529821 24.5669 0 24.498C2.98384 26.4544 6.52009 27.5714 10.3336 27.5714C22.7289 27.5714 29.5057 17.1319 29.5057 8.08284C29.5057 7.7801 29.4954 7.48779 29.4811 7.19757C30.8179 6.23295 31.9413 5.02823 32.8571 3.64186Z" fill="#263A29"/>
</g>
</g>
</svg>
