<svg width="24" height="24" viewBox="0 0 16 18" fill="none" xmlns="http://www.w3.org/2000/svg">
<path id="lock" d="M7.71429 0C4.88571 0 2.57143 2.31429 2.57143 5.14286V7.71429H1C0.447716 7.71429 0 8.162 0 8.71429V17C0 17.5523 0.447715 18 1 18H14.4286C14.9809 18 15.4286 17.5523 15.4286 17V8.71429C15.4286 8.162 14.9809 7.71429 14.4286 7.71429H12.8571V5.14286C12.8571 2.31429 10.5429 0 7.71429 0ZM7.71429 2.57143C9.15429 2.57143 10.2857 3.70286 10.2857 5.14286V7.71429H5.14286V5.14286C5.14286 3.70286 6.27429 2.57143 7.71429 2.57143Z" fill="#41644A"/>
</svg>
